<svg xmlns="http://www.w3.org/2000/svg" id="Layer_1" viewBox="0 0 910 280"><style>.st0{fill:#ff0062}.st1{fill:none;stroke:#ff0062;stroke-width:10;stroke-miterlimit:10}</style><path d="M259.5 218.9l18.3 31.8H42.4L160.1 46.8l47.9 82.9h24.5L160.1 4.3 5.6 271.9h309.1l-30.6-53z" class="st0"/><path d="M310.7 182.8H166.3l12.3 21.3H323zM288.6 144.6H144.2l12.3 21.2h144.4zM-2995.7-173l55.4 95.9h-110.8l55.4-95.9m0-20l-72.7 125.9h145.4l-72.7-125.9zM-2689.9 20l8.6 14.9h-110.8l55.4-95.9 22.5 39h11.6l-34.1-59-72.7 125.9h145.4l-14.4-24.9z" class="st0"/><path d="M-2745-10h76M-2735 8h76" class="st1"/><path d="M-2780.9 302l8.6 14.9h-110.8l55.4-95.9 22.5 39h11.6l-34.1-59-72.7 125.9h145.4l-14.4-24.9z" class="st0"/><path d="M-2756.8 285h-68l5.8 10h67.9zM-2767.2 267h-68l5.8 10h67.9z" class="st0"/><path d="M444.8 126.2h24.3c1.2 0 1.9.2 2.2.5.3.3.3 1 .1 2.1l-16.1 91.1a57.9 57.9 0 0 1-9.4 24.5c-5.2 6.9-13.6 10.3-25.2 10.3-6.9 0-13.4-1.2-19.6-3.7-1.2-.3-1.7-1-1.7-2.1l.3-1.4 3.5-8.4c.7-1.7 1.9-2.3 3.5-1.6 3.5 1.3 6.9 1.9 10.3 1.9 10.4 0 16.8-7.4 19.4-22.2l13.5-77.1h-7.5c-1.2.1-1.9 0-2.2-.3-.3-.3-.3-1-.1-2.1l1.4-8.9c.2-1 .6-1.7 1-2.1.4-.3 1.2-.5 2.3-.5zm30.8-27.8c0 3.6-1.3 6.7-3.9 9.2a13.3 13.3 0 0 1-9.5 3.8c-3.7 0-6.6-1.1-8.7-3.3a12 12 0 0 1-3.1-8.7c0-3.6 1.4-6.6 4.1-9.2 2.7-2.6 5.9-3.8 9.5-3.8 3.6 0 6.5 1.1 8.6 3.3 2 2.2 3 5.1 3 8.7zM566.7 158.9c0 16.9-4.5 30.5-13.6 40.7a47.4 47.4 0 0 1-37.5 15.3c-10.5 0-18.6-3-24.4-8.9-5.8-5.9-8.7-14.6-8.7-25.9 0-16.3 4.3-29.7 12.9-40.1a44.5 44.5 0 0 1 36.4-15.6c16.5 0 27.3 6.6 32.3 19.8 1.8 4.2 2.6 9.1 2.6 14.7zm-20.6.4c0-13.2-5.7-19.8-17.1-19.8a21.8 21.8 0 0 0-21.3 14.7 70.6 70.6 0 0 0-4.7 25.9c0 13.5 5.2 20.3 15.7 20.3a22 22 0 0 0 13.4-4.2c3.8-2.8 6.6-6.5 8.5-11a66.6 66.6 0 0 0 5.5-25.9zM597.3 204.4l-16.1 8.9c-1 .6-1.9.6-2.4.1-.6-.5-.9-1-.9-1.4l.2-1L598 96.3h-7.5c-1.2.1-1.9 0-2.2-.3-.3-.3-.3-1-.1-2.1l1.6-8.9c.2-1.7 1.3-2.6 3.3-2.6h24.1c1.2 0 1.9.2 2.2.5.3.3.3 1 .1 2.1l-9.3 53.7a34.9 34.9 0 0 1 28.8-14.3c8.9 0 15.8 2.9 20.8 8.6 5 5.7 7.5 13.8 7.5 24.3a71 71 0 0 1-11.4 41 37.8 37.8 0 0 1-33.2 16.7 34.3 34.3 0 0 1-25.4-10.6zm45.3-58.2c-2.8-3.7-6.9-5.6-12.4-5.6s-10.5 1.6-15 4.8a20.6 20.6 0 0 0-8.4 13.5l-5.4 31.8c.8 1 1.7 2.1 2.8 3.1 1 1 3.2 2.3 6.5 3.8 3.3 1.6 6.7 2.4 10.3 2.4 17.2 0 25.9-12.9 25.9-38.6a25.4 25.4 0 0 0-4.3-15.2zM686.5 126.2h24.3c1.2 0 1.9.2 2.2.5.3.3.3 1 .1 2.1l-11.9 66.6-.2 2.1c0 2.2 1 3.3 3 3.3 1.4 0 3.1-.4 5-1.2 1.9-.8 3.2-.5 3.9 1l1.4 2.8c.8 1.5.5 2.9-.9 4-6.3 5-12.6 7.5-19.1 7.5-9 0-13.5-4-13.5-12.1l.3-4.5 10-58h-7.5c-1.2.1-1.9 0-2.2-.3-.3-.3-.3-1-.1-2.1l1.7-9.1c.4-1.7 1.5-2.6 3.5-2.6zm30.7-27.8c0 3.6-1.3 6.7-3.9 9.2a13.3 13.3 0 0 1-9.5 3.8c-3.7 0-6.6-1.1-8.7-3.3a12 12 0 0 1-3.1-8.7c0-3.6 1.4-6.6 4.1-9.2 2.7-2.6 5.9-3.8 9.5-3.8 3.6 0 6.5 1.1 8.6 3.3 2 2.2 3 5.1 3 8.7zM756.2 201.8c10.7 0 16.1-3.8 16.1-11.4 0-3.4-1.2-5.9-3.7-7.6a38.6 38.6 0 0 0-10.3-4.6l-8.7-2.9c-1.3-.5-3.4-1.5-6.2-3a19.7 19.7 0 0 1-6.1-4.5 24 24 0 0 1-5.1-15.4c0-8.9 3.2-15.8 9.6-20.7a39 39 0 0 1 24.7-7.4c10.1 0 17.5 2.2 22.1 6.6 4.7 4.4 7 9.8 7 16.3 0 2.4-.2 3.8-.5 4.2-.3.4-1.1.5-2.3.5h-10c-1.2 0-1.9-.2-2.3-.5-.3-.3-.5-1.1-.5-2.3-.1-3.7-1.3-6.6-3.6-8.5-2.3-1.9-6.1-2.9-11.5-2.9-9.6 0-14.3 3.4-14.3 10.3 0 3 1.3 5.4 3.8 7.1 2.6 1.7 6.2 3.4 10.8 5 4.7 1.6 8.1 3 10.3 4a44 44 0 0 1 7.3 4.5c5.5 3.7 8.2 9.9 8.2 18.5s-3.4 15.4-10.1 20.3a42 42 0 0 1-25.4 7.3c-21.1 0-31.8-8.3-32-24.8 0-1.2.2-1.9.5-2.3s1-.5 2.1-.5h9.8c1.2 0 1.9.2 2.3.5.4.3.6 1.1.9 2.3.5 4 1.9 6.9 4.4 8.8 2.8 2.1 6.9 3.1 12.7 3.1zM809.5 212.8c-1.6 0-2.4-.5-2.4-1.4l.2-1.2L827 96.3h-7.5c-1.2.1-1.9 0-2.2-.3-.3-.3-.3-1-.1-2.1l1.6-8.9c.2-1.7 1.3-2.6 3.3-2.6h24.3c1.2 0 1.9.2 2.2.5.3.3.3 1 .1 2.1l-9.4 53.9a38 38 0 0 1 30.2-14.5c14.8 0 22.2 7 22.2 21 0 3.5-.5 7.8-1.6 12.8l-7.9 37.2-.2 2.1c0 2.2.9 3.3 2.8 3.3 1.4 0 3.1-.4 5-1.2 1.9-.8 3.2-.5 3.9 1l1.4 2.8c.3.6.5 1.2.5 1.9s-.5 1.4-1.4 2.1c-6.3 5-12.6 7.5-19.1 7.5-9.1 0-13.6-3.9-13.6-11.7 0-1.5.2-3.1.5-4.9l7.3-35.5c.9-4.9 1.4-8.4 1.4-10.5 0-7.1-4-10.7-11.9-10.7-5.8 0-11 1.7-15.4 5a19.6 19.6 0 0 0-8 12.2l-8.9 51.4c-.1 1-.4 1.7-.9 2.1-.5.3-1.3.5-2.4.5h-13.7z"/><g><path d="M-1066.5 218.9l18.3 31.8h-235.4l117.7-203.9 47.9 82.9h24.5l-72.4-125.4-154.5 267.6h309.1l-30.6-53z" class="st0"/><path d="M-1015.3 182.8h-144.4l12.3 21.3h144.4zM-1037.4 144.6h-144.4l12.3 21.2h144.4z" class="st0"/></g><text font-family="CreteRound-Italic" font-size="174.8" transform="translate(-896.2 212.8)">jobish</text></svg>