<svg id="Layer_1" data-name="Layer 1" xmlns="http://www.w3.org/2000/svg" viewBox="0 0 910 280"><defs><style>.cls-1{fill:#ff0062;}</style></defs><title>Artboard 1 copy 3</title><path d="M444.84,126.23h24.3c1.16,0,1.89.17,2.18.52s.32,1,.09,2.1l-16.08,91.09q-2.81,15.74-9.45,24.48-7.86,10.32-25.17,10.32a52.81,52.81,0,0,1-19.58-3.67,2.1,2.1,0,0,1-1.75-2.1,4.09,4.09,0,0,1,.35-1.4l3.49-8.39q1-2.62,3.5-1.58A29.94,29.94,0,0,0,417,239.53q15.56,0,19.4-22.21l13.47-77.1h-7.52c-1.17.11-1.9,0-2.19-.35s-.32-1.05-.08-2.1l1.39-8.92a3.94,3.94,0,0,1,1-2.1A3.77,3.77,0,0,1,444.84,126.23Zm30.77-27.8a12.2,12.2,0,0,1-3.94,9.18,13.27,13.27,0,0,1-9.53,3.76q-5.59,0-8.74-3.32a12.86,12.86,0,0,1,1-17.84,13.54,13.54,0,0,1,9.53-3.84,11.27,11.27,0,0,1,8.57,3.32A12.18,12.18,0,0,1,475.61,98.43Z"/><path d="M566.7,158.92q0,25.37-13.55,40.66t-37.51,15.29q-15.74,0-24.39-8.91t-8.65-25.88q0-24.48,12.94-40.12t36.36-15.65q24.83,0,32.35,19.75A41.9,41.9,0,0,1,566.7,158.92Zm-20.63.36q0-19.77-17.14-19.76a21.77,21.77,0,0,0-13.2,4,23.66,23.66,0,0,0-8.13,10.67,69.4,69.4,0,0,0-4.72,25.87q0,20.28,15.74,20.28A22,22,0,0,0,532,196.17a25.38,25.38,0,0,0,8.48-11A63.89,63.89,0,0,0,546.07,159.28Z"/><path d="M597.29,204.38l-16.08,8.92c-1.05.58-1.87.61-2.45.09a1.81,1.81,0,0,1-.7-2.36L598,96.33h-7.52c-1.16.12-1.89,0-2.18-.35s-.33-1-.09-2.1L589.77,85c.24-1.75,1.34-2.62,3.33-2.62h24.12c1.17,0,1.9.17,2.19.52s.32,1,.09,2.1l-9.27,53.67q11.19-14.32,28.85-14.33,13.27,0,20.8,8.56t7.52,24.31q0,24.3-11.36,41t-33.22,16.69Q607.43,214.87,597.29,204.38Zm45.28-58.22q-4.19-5.59-12.41-5.59a25.5,25.5,0,0,0-15,4.81,20.27,20.27,0,0,0-8.39,13.54l-5.42,31.83a28.21,28.21,0,0,0,2.8,3.06,28.44,28.44,0,0,0,6.47,3.84A23.35,23.35,0,0,0,620.89,200q25.88,0,25.88-38.64Q646.77,151.76,642.57,146.16Z"/><path d="M686.46,126.23h24.3c1.17,0,1.89.17,2.19.52s.32,1,.08,2.1l-11.88,66.62a14.61,14.61,0,0,0-.18,2.09q0,3.33,3,3.33a13.14,13.14,0,0,0,5-1.23q2.88-1.22,3.93,1.05l1.4,2.8a2.94,2.94,0,0,1-.88,4q-9.43,7.51-19,7.52-13.47,0-13.47-12.07a32.76,32.76,0,0,1,.35-4.54l10-58.05h-7.52c-1.16.12-1.89,0-2.18-.35s-.33-1-.09-2.1l1.75-9.09C683.37,127.1,684.48,126.23,686.46,126.23Zm30.77-27.8a12.23,12.23,0,0,1-3.93,9.18,13.29,13.29,0,0,1-9.53,3.76q-5.6,0-8.74-3.32a12.83,12.83,0,0,1,1-17.84,13.51,13.51,0,0,1,9.53-3.84,11.23,11.23,0,0,1,8.56,3.32A12.18,12.18,0,0,1,717.23,98.43Z"/><path d="M756.22,201.76q16.08,0,16.08-11.36a8.63,8.63,0,0,0-3.67-7.61,39.45,39.45,0,0,0-10.31-4.63c-4.44-1.4-7.32-2.36-8.66-2.89s-3.41-1.51-6.21-3a20.41,20.41,0,0,1-6.12-4.46,24.18,24.18,0,0,1-5.07-15.38q0-13.29,9.62-20.72t24.74-7.43q15.12,0,22.12,6.55a21.49,21.49,0,0,1,7,16.35c0,2.45-.17,3.85-.52,4.2a3.4,3.4,0,0,1-2.28.52H783a3.35,3.35,0,0,1-2.27-.52,3.39,3.39,0,0,1-.53-2.28q-.18-5.58-3.58-8.48t-11.46-2.88q-14.32,0-14.33,10.31a8,8,0,0,0,3.84,7.09,50.64,50.64,0,0,0,10.84,5q7,2.44,10.32,4a45.63,45.63,0,0,1,7.34,4.55q8.22,5.59,8.22,18.53t-10.05,20.28q-10.06,7.35-25.44,7.34-31.65,0-32-24.82a3.39,3.39,0,0,1,.53-2.28,3,3,0,0,1,2.1-.52h9.79a3.39,3.39,0,0,1,2.27.52,4.75,4.75,0,0,1,.87,2.28q.71,5.94,4.37,8.83T756.22,201.76Z"/><path d="M809.54,212.78c-1.63,0-2.45-.47-2.45-1.4a5.07,5.07,0,0,1,.18-1.23L827,96.33h-7.52c-1.17.12-1.9,0-2.19-.35s-.32-1-.08-2.1L818.81,85c.23-1.75,1.34-2.62,3.32-2.62h24.3c1.17,0,1.9.17,2.19.52s.32,1,.09,2.1l-9.45,53.85q12.24-14.5,30.25-14.51,22.2,0,22.21,21a64,64,0,0,1-1.58,12.76l-7.86,37.24a14.85,14.85,0,0,0-.18,2.1c0,2.22.93,3.32,2.8,3.32a13.21,13.21,0,0,0,5-1.22c1.92-.82,3.24-.47,3.93,1l1.4,2.79a3.71,3.71,0,0,1,.53,1.93,2.83,2.83,0,0,1-1.4,2.1q-9.45,7.51-19.06,7.51-13.63,0-13.64-11.71a25.15,25.15,0,0,1,.53-4.9l7.34-35.49a64.82,64.82,0,0,0,1.4-10.49q0-10.67-11.89-10.66a24.92,24.92,0,0,0-15.38,5q-6.66,5-8,12.15l-8.91,51.4a3,3,0,0,1-.88,2.1,4.23,4.23,0,0,1-2.45.53Z"/><polygon class="cls-1" points="254.04 227.81 258.76 235.99 71.32 235.99 165.04 73.66 190.3 117.41 228.79 117.41 165.04 7 13.59 269.32 316.49 269.32 292.53 227.81 254.04 227.81"/><polygon class="cls-1" points="177.18 165.32 297.44 165.32 278.2 131.99 157.93 131.99 177.18 165.32"/><polygon class="cls-1" points="206.04 215.31 326.31 215.31 307.06 181.98 186.8 181.98 206.04 215.31"/></svg>